<svg width="16" height="16" viewBox="0 0 16 16" fill="none" xmlns="http://www.w3.org/2000/svg">
<rect x="2.5" y="3.16666" width="11" height="3" rx="0.5" stroke="#AEB4BD"/>
<path fill-rule="evenodd" clip-rule="evenodd" d="M9.5 1.7738C9.5 1.63573 9.38807 1.5238 9.25 1.5238H6.75C6.61193 1.5238 6.5 1.63573 6.5 1.7738L6.5 2.80951H9.5V1.7738ZM6.5 0.666656C5.94772 0.666656 5.5 1.05041 5.5 1.5238V2.80951C5.5 3.2829 5.94772 3.66666 6.5 3.66666H9.5C10.0523 3.66666 10.5 3.2829 10.5 2.80951V1.5238C10.5 1.05041 10.0523 0.666656 9.5 0.666656H6.5Z" fill="#AEB4BD"/>
<path d="M3.5 6.66666C3.5 6.39051 3.72386 6.16666 4 6.16666H12C12.2761 6.16666 12.5 6.39051 12.5 6.66666V12.6667C12.5 13.4951 11.8284 14.1667 11 14.1667H5C4.17157 14.1667 3.5 13.4951 3.5 12.6667V6.66666Z" stroke="#AEB4BD"/>
<rect x="6" y="8.16666" width="1" height="4" rx="0.5" fill="#AEB4BD"/>
<rect x="9" y="8.16666" width="1" height="4" rx="0.5" fill="#AEB4BD"/>
</svg>
