<svg width="63" height="63" viewBox="0 0 63 63" fill="none" xmlns="http://www.w3.org/2000/svg">
<circle cx="31.5" cy="31.5" r="31.5" fill="#FFE2E2"/>
<path d="M34.4749 14C35.0373 14 35.489 14.4635 35.4746 15.0256L34.9165 36.7913C34.9026 37.3334 34.4591 37.7656 33.9168 37.7656H29.8662C29.3239 37.7656 28.8804 37.3334 28.8665 36.7913L28.3085 15.0256C28.294 14.4635 28.7458 14 29.3081 14H34.4749ZM31.9384 48.3594C29.7353 48.3594 27.954 46.5781 28.0009 44.4219C27.954 42.2656 29.7353 40.5312 31.9384 40.5312C34.0009 40.5312 35.829 42.2656 35.829 44.4219C35.829 46.5781 34.0009 48.3594 31.9384 48.3594Z" fill="#FF3C3C"/>
</svg>
