<svg width="24" height="24" viewBox="0 0 24 24" fill="none" xmlns="http://www.w3.org/2000/svg">
<mask id="path-1-inside-1_344_18516" fill="white">
<path fill-rule="evenodd" clip-rule="evenodd" d="M16.581 14.2647C18.3543 12.9228 19.5 10.7952 19.5 8.4C19.5 4.34071 16.2093 1.05 12.15 1.05C8.09076 1.05 4.80005 4.34071 4.80005 8.4C4.80005 10.8029 5.95311 12.9364 7.7361 14.2776C8.14773 15.2428 8.55567 16.3613 8.85168 17.2564C8.99718 17.6963 9.40473 18 9.86809 18H14.4595C14.9096 18 15.3088 17.7131 15.4539 17.287C15.7499 16.4179 16.1465 15.2884 16.581 14.2647Z"/>
</mask>
<path fill-rule="evenodd" clip-rule="evenodd" d="M16.581 14.2647C18.3543 12.9228 19.5 10.7952 19.5 8.4C19.5 4.34071 16.2093 1.05 12.15 1.05C8.09076 1.05 4.80005 4.34071 4.80005 8.4C4.80005 10.8029 5.95311 12.9364 7.7361 14.2776C8.14773 15.2428 8.55567 16.3613 8.85168 17.2564C8.99718 17.6963 9.40473 18 9.86809 18H14.4595C14.9096 18 15.3088 17.7131 15.4539 17.287C15.7499 16.4179 16.1465 15.2884 16.581 14.2647Z" fill="#5C4AE8"/>
<path d="M16.581 14.2647L15.6306 13.0088L15.2955 13.2624L15.1313 13.6493L16.581 14.2647ZM7.7361 14.2776L9.18486 13.6597L9.01958 13.2722L8.68285 13.0189L7.7361 14.2776ZM8.85168 17.2564L7.35634 17.7509H7.35634L8.85168 17.2564ZM15.4539 17.287L16.9448 17.7948L16.9448 17.7948L15.4539 17.287ZM17.925 8.4C17.925 10.281 17.0275 11.9518 15.6306 13.0088L17.5314 15.5207C19.6812 13.8939 21.075 11.3095 21.075 8.4H17.925ZM12.15 2.625C15.3395 2.625 17.925 5.21056 17.925 8.4H21.075C21.075 3.47086 17.0792 -0.524997 12.15 -0.524997V2.625ZM6.37505 8.4C6.37505 5.21056 8.9606 2.625 12.15 2.625V-0.524997C7.22091 -0.524997 3.22505 3.47086 3.22505 8.4H6.37505ZM8.68285 13.0189C7.27839 11.9625 6.37505 10.287 6.37505 8.4H3.22505C3.22505 11.3188 4.62783 13.9104 6.78935 15.5363L8.68285 13.0189ZM10.347 16.7618C10.0409 15.8362 9.61779 14.6749 9.18486 13.6597L6.28734 14.8954C6.67766 15.8107 7.07043 16.8864 7.35634 17.7509L10.347 16.7618ZM9.86809 16.425C10.1058 16.425 10.2861 16.5778 10.347 16.7618L7.35634 17.7509C7.70822 18.8149 8.70365 19.575 9.86809 19.575V16.425ZM14.4595 16.425H9.86809V19.575H14.4595V16.425ZM13.963 16.7791C14.0343 16.57 14.2324 16.425 14.4595 16.425V19.575C15.5868 19.575 16.5833 18.8561 16.9448 17.7948L13.963 16.7791ZM15.1313 13.6493C14.6729 14.7291 14.2609 15.9045 13.963 16.7791L16.9448 17.7948C17.2389 16.9313 17.6201 15.8476 18.0308 14.8801L15.1313 13.6493Z" fill="#5C4AE8" mask="url(#path-1-inside-1_344_18516)"/>
<path d="M9 7.35001H15.3" stroke="white" stroke-width="1.575" stroke-linecap="round"/>
<path d="M12.1499 7.875L12.1499 14.175" stroke="white" stroke-width="1.575" stroke-linecap="round"/>
<path d="M8.69202 19.8389C8.61916 19.511 8.86865 19.2 9.20452 19.2H15.0956C15.4314 19.2 15.6809 19.511 15.6081 19.8389L15.0414 22.3889C14.988 22.6291 14.775 22.8 14.5289 22.8H9.77119C9.52512 22.8 9.31207 22.6291 9.25869 22.3889L8.69202 19.8389Z" fill="#5C4AE8"/>
</svg>
