<svg width="40" height="40" viewBox="0 0 40 40" fill="none" xmlns="http://www.w3.org/2000/svg">
<circle cx="20" cy="20" r="20" fill="#F0F2F5"/>
<path fill-rule="evenodd" clip-rule="evenodd" d="M13 19.5167C13 19.2681 13.2015 19.0667 13.45 19.0667H26.55C26.7985 19.0667 27 19.2681 27 19.5166V20.4833C27 20.7318 26.7985 20.9333 26.55 20.9333H13.45C13.2015 20.9333 13 20.7318 13 20.4833V19.5167Z" fill="#2B2E33"/>
<path fill-rule="evenodd" clip-rule="evenodd" d="M19.5164 27C19.2679 27 19.0664 26.7985 19.0664 26.55V13.45C19.0664 13.2015 19.2679 13 19.5164 13H20.4831C20.7316 13 20.9331 13.2015 20.9331 13.45V26.55C20.9331 26.7985 20.7316 27 20.4831 27H19.5164Z" fill="#2B2E33"/>
</svg>
