<svg width="24" height="24" viewBox="0 0 24 24" fill="none" xmlns="http://www.w3.org/2000/svg">
<path fill-rule="evenodd" clip-rule="evenodd" d="M4.87333 19.0149C3.09639 17.2098 2 14.7329 2 11.9999C2 6.47711 6.47715 2 12 2C17.5228 2 22 6.47711 22 11.9999C22 17.2112 18.0137 21.4914 12.924 21.9577L13 22.0002H3.17518C2.73432 22.0002 2.50921 21.4711 2.81493 21.1535L4.87333 19.0149Z" fill="#5C4AE8"/>
<path d="M11.5519 6.90509C11.7355 6.53421 12.2645 6.53422 12.4481 6.90509L13.698 9.4298C13.7723 9.57993 13.9169 9.68286 14.0831 9.70397L16.9289 10.0655C17.3515 10.1192 17.5177 10.6429 17.2034 10.9304L15.1462 12.8127C15.0181 12.9299 14.96 13.1053 14.9927 13.2759L15.5127 15.9822C15.5916 16.3933 15.1608 16.7136 14.7899 16.5196L12.2318 15.1814C12.0866 15.1055 11.9134 15.1055 11.7682 15.1814L9.21011 16.5196C8.83923 16.7136 8.40836 16.3933 8.48733 15.9822L9.00726 13.2759C9.04003 13.1053 8.98192 12.9299 8.85376 12.8127L6.79657 10.9304C6.48231 10.6429 6.64852 10.1192 7.07107 10.0655L9.91691 9.70397C10.0831 9.68286 10.2277 9.57993 10.302 9.4298L11.5519 6.90509Z" fill="white"/>
</svg>
