<svg width="24" height="24" viewBox="0 0 24 24" fill="none" xmlns="http://www.w3.org/2000/svg">
<path fill-rule="evenodd" clip-rule="evenodd" d="M17.9002 0C16.4826 0 15.3335 1.14914 15.3335 2.56667V12.6344C13.589 13.5565 12.4001 15.3894 12.4001 17.5C12.4001 20.5376 14.8626 23 17.9001 23C20.9377 23 23.4001 20.5376 23.4001 17.5C23.4001 15.3894 22.2113 13.5565 20.4668 12.6344V2.56667C20.4668 1.14914 19.3177 0 17.9002 0Z" fill="#5C4AE8"/>
<path fill-rule="evenodd" clip-rule="evenodd" d="M16.7 13.4053L16.7 2.75C16.7 2.08726 17.2373 1.55 17.9 1.55C18.5628 1.55 19.1 2.08726 19.1 2.75L19.1 13.3457C20.8861 13.8291 22.2 15.4612 22.2 17.4002C22.2 19.7198 20.3196 21.6002 18 21.6002C15.6805 21.6002 13.8 19.7198 13.8 17.4002C13.8 15.5343 15.0168 13.9527 16.7 13.4053Z" fill="white"/>
<path fill-rule="evenodd" clip-rule="evenodd" d="M17.5001 14.4416L17.5001 4.9997C17.5001 4.77879 17.6792 4.5997 17.9001 4.5997C18.1211 4.5997 18.3001 4.77879 18.3001 4.9997L18.3001 14.4149C19.8162 14.5654 21.0002 15.8445 21.0002 17.4001C21.0002 19.0569 19.6571 20.4001 18.0002 20.4001C16.3434 20.4001 15.0002 19.0569 15.0002 17.4001C15.0002 15.9136 16.0813 14.6797 17.5001 14.4416Z" fill="#5C4AE8"/>
<path fill-rule="evenodd" clip-rule="evenodd" d="M10.8764 11.2088C11.9424 10.1258 12.6001 8.6398 12.6001 7.00014C12.6001 3.68647 9.91381 1.0002 6.6001 1.0002C3.28639 1.0002 0.600098 3.68647 0.600098 7.00014C0.600098 10.1265 2.99126 12.6944 6.04452 12.9747L6 12.9996H6.52374C6.54916 12.9999 6.57461 13.0001 6.6001 13.0001C6.62559 13.0001 6.65104 12.9999 6.67645 12.9996H11.4248C11.8656 12.9996 12.0907 12.4705 11.785 12.1529L10.8764 11.2088Z" fill="#5C4AE8"/>
<path d="M4.80005 4.8H8.40005" stroke="white" stroke-width="1.32" stroke-linecap="round"/>
<path d="M4.80005 7.2H8.40005" stroke="white" stroke-width="1.32" stroke-linecap="round"/>
<path d="M4.80005 9.60001H8.40005" stroke="white" stroke-width="1.32" stroke-linecap="round"/>
</svg>
