<svg width="360" height="184" viewBox="0 0 360 184" fill="none" xmlns="http://www.w3.org/2000/svg">
<g clip-path="url(#clip0_1546_23485)">
<rect width="360" height="184" fill="#FFE4F7"/>
<g filter="url(#filter0_f_1546_23485)">
<path d="M389.5 126.5C395.116 155.755 396.171 194.225 314 210C231.829 225.775 101.616 239.255 96 210C90.3837 180.745 155.829 159.275 238 143.5C328.5 115.5 383.884 97.2448 389.5 126.5Z" fill="url(#paint0_linear_1546_23485)"/>
</g>
<g filter="url(#filter1_f_1546_23485)">
<path d="M362 82.5626C362 115.057 378.584 55.8542 268.797 55.8542C159.011 55.8542 -22.5 119.063 -39 39.8987C-42.2858 -22.5956 -51 -47.9373 176 -71.4373C403 -94.9372 362 50.0684 362 82.5626Z" fill="#FF58AC" fill-opacity="0.9"/>
</g>
<g filter="url(#filter2_f_1546_23485)">
<path d="M-47 126.311C-47 85.2701 -13.7299 52 27.3109 52H259.984C276.561 52 290 65.4387 290 82.0161V138.642C290 158.841 262.274 164.465 254.403 145.862C250.62 136.92 240.577 132.415 231.383 135.535L51.1899 196.681C2.99873 213.034 -47 177.201 -47 126.311Z" fill="white" fill-opacity="0.8"/>
</g>
<path d="M27.6562 115.633V118.309C29.1113 118.221 30.5859 118.084 31.9727 117.879L32.168 119.695C28.2227 120.457 24.0039 120.496 20.8984 120.496L20.6055 118.484C21.9434 118.475 23.5156 118.465 25.1758 118.406V115.633H27.6562ZM31.3281 108.113V110.125H27.6953C27.8613 111.844 29.1992 113.455 31.875 114.109L30.7422 116.043C28.6621 115.516 27.2266 114.363 26.4258 112.879C25.6348 114.432 24.2188 115.643 22.1289 116.18L20.957 114.305C23.6426 113.592 24.9414 111.922 25.1172 110.125H21.5234V108.113H25.1758V106.18H27.6562V108.113H31.3281ZM35.4688 106.023V123.836H32.9883V106.023H35.4688ZM41.6359 107.293C43.9992 107.293 45.5422 109.734 45.5617 113.719C45.5422 117.723 43.9992 120.184 41.6359 120.184C39.2922 120.184 37.7687 117.723 37.7687 113.719C37.7687 109.734 39.2922 107.293 41.6359 107.293ZM41.6359 109.637C40.6398 109.637 40.0539 111.004 40.0734 113.719C40.0539 116.453 40.6398 117.801 41.6359 117.781C42.6516 117.801 43.257 116.453 43.257 113.719C43.257 111.004 42.6516 109.637 41.6359 109.637ZM53.0227 106.023V123.797H50.6398V114.832H49.0383V122.977H46.675V106.277H49.0383V112.801H50.6398V106.023H53.0227ZM57.1195 117.039C55.8109 115.73 55.1078 114.109 55.0883 112.312C55.1078 109.695 57.0609 107.605 59.6 107.605C61.0453 107.605 62.2758 108.27 63.0961 109.305C63.9359 108.27 65.1859 107.605 66.6312 107.605C69.1508 107.605 71.1234 109.695 71.1234 112.312C71.1234 114.109 70.4203 115.73 69.0922 117.039L63.0961 123.035L57.1195 117.039ZM77.4422 107.859H81.075L85.0008 117.449H85.157L89.0828 107.859H92.7156V122H89.8641V112.742H89.7469L86.0555 121.941H84.1023L80.4109 112.703H80.2938V122H77.4422V107.859ZM94.8984 122V107.859H100.523C103.648 107.859 105.211 109.363 105.211 111.492C105.211 113.152 104.137 114.188 102.672 114.52V114.656C104.273 114.734 105.777 116.004 105.777 118.094C105.777 120.34 104.098 122 100.895 122H94.8984ZM100.309 119.578C102.008 119.578 102.73 118.875 102.73 117.82C102.73 116.629 101.832 115.789 100.387 115.789H97.8281V119.578H100.309ZM100.094 113.777C101.324 113.777 102.242 113.094 102.242 111.961C102.242 110.945 101.5 110.242 100.152 110.242H97.8281V113.777H100.094ZM106.886 110.281V107.859H118.468V110.281H114.132V122H111.222V110.281H106.886ZM123.014 107.859V122H120.084V107.859H123.014ZM143.825 106.023V115.574H141.325V106.023H143.825ZM134.391 116.355V118.016H141.345V116.355H143.825V123.602H131.93V116.355H134.391ZM134.391 121.59H141.345V119.949H134.391V121.59ZM134.079 106.766C136.852 106.746 138.942 108.484 138.942 110.984C138.942 113.406 136.852 115.145 134.079 115.145C131.305 115.145 129.216 113.406 129.216 110.984C129.216 108.484 131.305 106.746 134.079 106.766ZM134.079 108.836C132.653 108.836 131.637 109.637 131.657 110.984C131.637 112.312 132.653 113.094 134.079 113.094C135.466 113.094 136.481 112.312 136.481 110.984C136.481 109.637 135.466 108.836 134.079 108.836ZM154.562 107.059V112.605H149.191V114.5C151.838 114.5 153.4 114.412 155.207 114.07L155.441 116.062C153.371 116.434 151.496 116.492 148.059 116.492H146.73V110.75H152.062V109.012H146.691V107.059H154.562ZM161.008 106.043V116.98H158.527V114.246H155.578V112.273H158.527V110.477H155.578V108.504H158.527V106.043H161.008ZM161.008 117.781V123.797H158.527V119.773H148.762V117.781H161.008ZM177.136 106.023V112.977H179.753V115.027H177.136V123.797H174.675V106.023H177.136ZM173.464 108.68V110.672H163.015V108.68H167.038V106.297H169.538V108.68H173.464ZM168.288 111.668C170.886 111.668 172.82 113.426 172.82 115.906C172.82 118.387 170.886 120.145 168.288 120.145C165.671 120.145 163.738 118.387 163.738 115.906C163.738 113.426 165.671 111.668 168.288 111.668ZM168.288 113.68C167.038 113.699 166.12 114.539 166.12 115.906C166.12 117.293 167.038 118.113 168.288 118.094C169.538 118.113 170.437 117.293 170.437 115.906C170.437 114.539 169.538 113.699 168.288 113.68ZM194.846 107.566V109.246C194.846 111.473 194.846 113.973 194.123 117.742L191.623 117.488C192.297 114.129 192.327 111.629 192.346 109.539H181.877V107.566H194.846ZM196.409 119.598V121.629H180.198V119.598H185.998V113.484H188.479V119.598H196.409ZM35.8984 136.023V153.797H33.5352V144.871H31.8164V152.938H29.5312V136.316H31.8164V142.879H33.5352V136.023H35.8984ZM27.6562 138.074V140.086H23.5352V147.664C25.2539 147.654 26.7773 147.566 28.4961 147.254L28.6719 149.285C26.5039 149.695 24.6094 149.754 22.2656 149.773H21.0352V138.074H27.6562ZM51.8312 136.023V143.25H54.1555V145.32H51.8312V153.797H49.3117V136.023H51.8312ZM37.3977 148.777C38.6965 148.777 40.2102 148.777 41.7922 148.738V147.215C39.8977 146.844 38.6672 145.643 38.6867 143.992C38.6672 142 40.4641 140.652 43.0617 140.652C45.6008 140.652 47.4172 142 47.4367 143.992C47.4172 145.643 46.1672 146.854 44.2922 147.215V148.641C45.6984 148.572 47.1145 148.455 48.4328 148.27L48.5891 150.086C44.8 150.789 40.7375 150.809 37.7297 150.809L37.3977 148.777ZM48.2961 137.996V139.949H37.7492V137.996H41.7922V136.121H44.2922V137.996H48.2961ZM43.0617 142.547C41.8508 142.547 41.0305 143.074 41.05 143.992C41.0305 144.93 41.8508 145.438 43.0617 145.438C44.2336 145.438 45.0344 144.93 45.0344 143.992C45.0344 143.074 44.2336 142.547 43.0617 142.547ZM66.0211 140.047C66.0211 143.309 67.5055 146.59 70.5133 147.859L69.0484 149.852C67.0172 148.934 65.6109 147.166 64.8102 144.969C63.9996 147.361 62.5445 149.295 60.3766 150.281L58.8727 148.211C61.9781 146.902 63.482 143.504 63.5016 140.047V137.391H66.0211V140.047ZM73.9898 136.023V153.836H71.4703V136.023H73.9898ZM86.2898 137.059V139.051H82.7547C82.7742 141.131 84.0047 143.26 86.8953 144.188L85.6258 146.121C83.6531 145.486 82.2957 144.217 81.5242 142.625C80.7332 144.363 79.3172 145.74 77.2469 146.414L75.9188 144.5C78.8582 143.553 80.1961 141.277 80.2352 139.051H76.6023V137.059H86.2898ZM90.2938 136.023V140.34H92.6961V142.41H90.2938V146.746H87.7938V136.023H90.2938ZM90.2938 147.508V153.797H87.7938V149.48H78.3211V147.508H90.2938ZM107.301 136.023V142.977H109.918V145.027H107.301V153.797H104.84V136.023H107.301ZM103.629 138.68V140.672H93.1797V138.68H97.2031V136.297H99.7031V138.68H103.629ZM98.4531 141.668C101.051 141.668 102.984 143.426 102.984 145.906C102.984 148.387 101.051 150.145 98.4531 150.145C95.8359 150.145 93.9023 148.387 93.9023 145.906C93.9023 143.426 95.8359 141.668 98.4531 141.668ZM98.4531 143.68C97.2031 143.699 96.2852 144.539 96.2852 145.906C96.2852 147.293 97.2031 148.113 98.4531 148.094C99.7031 148.113 100.602 147.293 100.602 145.906C100.602 144.539 99.7031 143.699 98.4531 143.68ZM125.304 136.023V153.797H122.784V136.023H125.304ZM119.972 137.879C119.972 143.27 118.077 147.742 111.73 150.75L110.421 148.758C115.011 146.59 117.032 143.777 117.433 139.832H111.378V137.879H119.972Z" fill="black"/>
<rect x="20" y="24" width="59" height="28" rx="4.47761" fill="#2B2E33"/>
<path d="M40.8454 31.0167V32.3329C40.8454 33.7103 40.8454 35.0724 40.4475 36.9242L38.5191 36.7711C38.6569 36.1513 38.741 35.585 38.7946 35.057L30.9129 35.3937L30.668 33.7868L38.9017 33.6184C38.9094 33.2588 38.9094 32.9144 38.917 32.5624H31.0506V31.0167H40.8454ZM42.2687 37.6282V39.1739H29.6273V37.6282H34.3564V35.8835H36.3153V37.6282H42.2687ZM41.075 42.6327V44.1937H31.0965V40.031H33.0555V42.6327H41.075ZM55.109 30.4964V40.888H53.2572V30.4964H55.109ZM52.339 30.7412V40.5666H50.4871V35.8223H49.0791V34.2765H50.4871V30.7412H52.339ZM55.461 42.6021V44.1631H45.7734V39.7708H47.7323V42.6021H55.461ZM49.0026 31.5524V33.0981H45.5591V34.4755H48.4823V35.96H45.5591V37.368C47.0819 37.3527 48.1915 37.3068 49.477 37.0772L49.676 38.6077C48.069 38.8831 46.7376 38.929 44.6409 38.929H43.692V31.5524H49.0026ZM69.4339 41.2094V42.7857H56.6854V41.2094H69.4339ZM68.3167 32.4247V34.001H64.0621C64.2151 35.6769 65.8144 37.391 68.9748 37.8118L68.2249 39.3729C65.7532 38.9903 63.9703 37.8807 63.0367 36.3579C62.1108 37.8807 60.3355 38.9903 57.8638 39.3729L57.1292 37.8118C60.2743 37.391 61.8736 35.6769 62.0419 34.001H57.7873V32.4247H62.0725V30.6953H64.0162V32.4247H68.3167Z" fill="white"/>
<g filter="url(#filter3_i_1546_23485)">
<path d="M268.999 43.8046C269.902 42.3582 286.486 16.7161 319.595 29.6175C353.666 42.8918 342.113 85.6522 342.113 85.6522C342.113 85.6522 335.56 108.935 317.654 127.217C301.818 143.377 287.344 154.601 269.038 162H268.96C250.654 154.601 236.18 143.384 220.344 127.217C202.438 108.935 195.885 85.6522 195.885 85.6522C195.885 85.6522 184.339 42.8918 218.403 29.6175C251.512 16.7161 268.096 42.3582 268.999 43.8046Z" fill="url(#paint1_linear_1546_23485)"/>
</g>
<path d="M281.965 30.9004C290.484 25.8496 303.068 22.6406 319.777 29.1514C337.047 35.8801 342.745 50.0999 344.128 62.5576C344.819 68.7837 344.436 74.5857 343.882 78.8281C343.605 80.9501 343.285 82.6849 343.033 83.8906C342.907 84.4936 342.798 84.965 342.721 85.2861C342.682 85.4466 342.651 85.5699 342.63 85.6533C342.619 85.6947 342.611 85.7264 342.605 85.748C342.603 85.7589 342.6 85.7677 342.599 85.7734C342.598 85.7762 342.597 85.7787 342.597 85.7803V85.7822L342.113 85.6523L342.596 85.7822L342.595 85.7881V85.7891C342.594 85.7899 342.594 85.7914 342.594 85.793C342.593 85.7961 342.592 85.8007 342.59 85.8066C342.586 85.8185 342.581 85.8364 342.574 85.8594C342.561 85.9053 342.541 85.973 342.515 86.0615C342.461 86.2392 342.381 86.5009 342.273 86.8398C342.057 87.518 341.729 88.5053 341.279 89.7461C340.38 92.2275 338.996 95.725 337.05 99.7949C333.158 107.932 327.014 118.374 318.011 127.566V127.567C302.148 143.755 287.618 155.03 269.226 162.464L269.135 162.5H268.863L268.773 162.464C250.381 155.03 235.85 143.761 219.987 127.566C210.984 118.374 204.84 107.932 200.948 99.7949C199.002 95.725 197.618 92.2275 196.719 89.7461C196.269 88.5053 195.941 87.518 195.725 86.8398C195.617 86.5009 195.537 86.2392 195.483 86.0615C195.457 85.973 195.437 85.9053 195.424 85.8594C195.417 85.8365 195.413 85.8185 195.409 85.8066C195.408 85.8008 195.406 85.7961 195.405 85.793C195.405 85.7914 195.404 85.7899 195.403 85.7891V85.7881L195.402 85.7822L195.885 85.6523L195.401 85.7812V85.7803C195.401 85.7788 195.4 85.7762 195.399 85.7734C195.398 85.7677 195.395 85.7589 195.393 85.748C195.387 85.7264 195.379 85.6947 195.368 85.6533C195.347 85.5699 195.316 85.4466 195.277 85.2861C195.2 84.965 195.092 84.4936 194.966 83.8906C194.714 82.6849 194.394 80.9503 194.117 78.8281C193.564 74.5857 193.182 68.7837 193.873 62.5576C195.257 50.0998 200.955 35.88 218.222 29.1514C234.93 22.6408 247.514 25.8497 256.033 30.9004C263.352 35.2393 267.648 40.9226 268.999 42.8965C270.35 40.9227 274.646 35.2393 281.965 30.9004Z" stroke="#FA3B9F"/>
<path d="M220.209 20.1798C220.284 19.8757 220.716 19.8757 220.791 20.1798L222.535 27.2452C222.562 27.3534 222.647 27.4378 222.755 27.4645L229.82 29.2087C230.124 29.2838 230.124 29.7162 229.82 29.7913L222.755 31.5355C222.647 31.5622 222.562 31.6466 222.535 31.7548L220.791 38.8202C220.716 39.1243 220.284 39.1243 220.209 38.8202L218.465 31.7548C218.438 31.6466 218.353 31.5622 218.245 31.5355L211.18 29.7913C210.876 29.7162 210.876 29.2838 211.18 29.2087L218.245 27.4645C218.353 27.4378 218.438 27.3534 218.465 27.2452L220.209 20.1798Z" fill="white"/>
<path d="M322.709 71.1798C322.784 70.8757 323.216 70.8757 323.291 71.1798L325.332 79.4482C325.359 79.5564 325.444 79.6408 325.552 79.6676L333.82 81.7087C334.124 81.7838 334.124 82.2162 333.82 82.2913L325.552 84.3324C325.444 84.3592 325.359 84.4436 325.332 84.5518L323.291 92.8202C323.216 93.1243 322.784 93.1243 322.709 92.8202L320.668 84.5518C320.641 84.4436 320.556 84.3592 320.448 84.3324L312.18 82.2913C311.876 82.2162 311.876 81.7838 312.18 81.7087L320.448 79.6676C320.556 79.6408 320.641 79.5564 320.668 79.4482L322.709 71.1798Z" fill="white"/>
<g filter="url(#filter4_d_1546_23485)">
<path d="M213.015 129.966C213.14 129.459 213.86 129.459 213.985 129.966L216.694 140.94C216.739 141.12 216.88 141.261 217.06 141.306L228.034 144.015C228.541 144.14 228.541 144.86 228.034 144.985L217.06 147.694C216.88 147.739 216.739 147.88 216.694 148.06L213.985 159.034C213.86 159.541 213.14 159.541 213.015 159.034L210.306 148.06C210.261 147.88 210.12 147.739 209.94 147.694L198.966 144.985C198.459 144.86 198.459 144.14 198.966 144.015L209.94 141.306C210.12 141.261 210.261 141.12 210.306 140.94L213.015 129.966Z" fill="white"/>
</g>
<path d="M302.298 95.5862C302.298 72.2832 283.408 53.3923 260.105 53.3923C244.569 53.3923 231.975 65.9862 231.975 81.5216V99.1841C231.975 117.249 246.619 131.893 264.684 131.893H299.028C300.834 131.893 302.298 130.428 302.298 128.622V95.5862Z" fill="#FFDA58"/>
<path d="M239.19 53.3935C235.591 53.3935 232.114 54.6991 229.405 57.0681C225.098 60.8338 225.401 67.6229 230.025 70.991L236.863 75.972L257.173 53.3935L239.19 53.3935Z" fill="#FFDA58"/>
<path d="M249 70.5C249.241 69.6549 249.641 69.0923 250.113 68.7322C251.723 67.5037 253.07 69.9632 252.498 71.9065L251.329 75.8821C251.149 76.493 250.499 76.8329 249.895 76.6315C249.64 76.5467 249.42 76.3755 249.308 76.1315C248.83 75.0868 248.297 72.9608 249 70.5Z" fill="white"/>
<path d="M270.625 98.7188C270.625 98.7188 268.99 101.172 264.901 101.99C260.813 102.807 258.359 101.172 258.359 101.172" stroke="black" stroke-width="3.27084" stroke-linecap="round"/>
<circle cx="3.27084" cy="3.27084" r="3.27084" transform="matrix(-1 0 0 1 257.542 84)" fill="black"/>
<ellipse cx="0.67888" cy="0.993286" rx="0.67888" ry="0.993286" transform="matrix(0.601227 -0.799078 -0.799078 -0.601227 255.906 86.4529)" fill="black"/>
<circle cx="3.27084" cy="3.27084" r="3.27084" transform="matrix(-1 0 0 1 273.896 84)" fill="black"/>
<ellipse cx="0.67888" cy="0.993286" rx="0.67888" ry="0.993286" transform="matrix(0.601227 -0.799078 -0.799078 -0.601227 272.26 86.4529)" fill="black"/>
<path d="M243.202 73.3582C242.457 69.3296 245.634 65.6472 249.729 65.7938L257.424 66.0694C259.672 66.1499 261.471 67.9594 261.539 70.2069L261.709 75.8352C261.782 78.2467 259.844 80.2395 257.431 80.2335L248.011 80.2101C245.956 80.2051 244.197 78.7374 243.823 76.7173L243.202 73.3582Z" fill="#FB398C"/>
<path d="M245.202 72.4333C244.706 69.7538 246.814 67.3021 249.538 67.3899L257.515 67.6472C258.644 67.6836 259.549 68.5928 259.58 69.7217L259.761 76.255C259.794 77.4561 258.83 78.4479 257.628 78.4486L248.093 78.454C247.063 78.4546 246.18 77.7201 245.992 76.7076L245.202 72.4333Z" fill="black"/>
<path d="M245.202 72.4333C244.706 69.7538 246.814 67.3021 249.538 67.3899L257.515 67.6472C258.644 67.6836 259.549 68.5928 259.58 69.7217L259.761 76.255C259.794 77.4561 258.83 78.4479 257.628 78.4486L248.093 78.454C247.063 78.4546 246.18 77.7201 245.992 76.7076L245.202 72.4333Z" fill="url(#paint2_linear_1546_23485)" fill-opacity="0.2"/>
<mask id="mask0_1546_23485" style="mask-type:alpha" maskUnits="userSpaceOnUse" x="245" y="67" width="15" height="12">
<path d="M245.202 72.4333C244.706 69.7538 246.814 67.3021 249.538 67.3899L257.515 67.6472C258.644 67.6836 259.549 68.5928 259.58 69.7217L259.761 76.255C259.794 77.4561 258.83 78.4479 257.628 78.4486L248.093 78.454C247.063 78.4546 246.18 77.7201 245.992 76.7076L245.202 72.4333Z" fill="black"/>
<path d="M245.202 72.4333C244.706 69.7538 246.814 67.3021 249.538 67.3899L257.515 67.6472C258.644 67.6836 259.549 68.5928 259.58 69.7217L259.761 76.255C259.794 77.4561 258.83 78.4479 257.628 78.4486L248.093 78.454C247.063 78.4546 246.18 77.7201 245.992 76.7076L245.202 72.4333Z" fill="url(#paint3_linear_1546_23485)" fill-opacity="0.2"/>
</mask>
<g mask="url(#mask0_1546_23485)">
<path d="M244.872 70.7943L246.016 66.6597L250.996 66.9813L250.583 67.5886C248.348 70.8765 247.296 74.826 247.598 78.7902L245.634 78.5011L244.872 70.7943Z" fill="white"/>
</g>
<rect x="239.766" y="72.3877" width="4.26928" height="2.13464" rx="1.06732" transform="rotate(-10.4777 239.766 72.3877)" fill="#FB398C"/>
<rect x="260.898" y="70.2031" width="4.26928" height="2.13464" transform="rotate(0.0376456 260.898 70.2031)" fill="#FB398C"/>
<path d="M282.556 73.3582C283.301 69.3296 280.124 65.6472 276.03 65.7938L268.334 66.0694C266.087 66.1499 264.288 67.9594 264.22 70.2069L264.049 75.8352C263.977 78.2467 265.915 80.2395 268.327 80.2335L277.748 80.2101C279.802 80.2051 281.562 78.7374 281.935 76.7173L282.556 73.3582Z" fill="#FB398C"/>
<path d="M280.557 72.4333C281.052 69.7538 278.945 67.3021 276.221 67.3899L268.243 67.6472C267.115 67.6836 266.21 68.5928 266.178 69.7217L265.998 76.255C265.964 77.4561 266.929 78.4479 268.13 78.4486L277.666 78.454C278.696 78.4546 279.579 77.7201 279.766 76.7076L280.557 72.4333Z" fill="black"/>
<path d="M280.557 72.4333C281.052 69.7538 278.945 67.3021 276.221 67.3899L268.243 67.6472C267.115 67.6836 266.21 68.5928 266.178 69.7217L265.998 76.255C265.964 77.4561 266.929 78.4479 268.13 78.4486L277.666 78.454C278.696 78.4546 279.579 77.7201 279.766 76.7076L280.557 72.4333Z" fill="url(#paint4_linear_1546_23485)" fill-opacity="0.2"/>
<mask id="mask1_1546_23485" style="mask-type:alpha" maskUnits="userSpaceOnUse" x="265" y="67" width="16" height="12">
<path d="M280.557 72.4333C281.052 69.7538 278.945 67.3021 276.221 67.3899L268.243 67.6472C267.115 67.6836 266.21 68.5928 266.178 69.7217L265.998 76.255C265.964 77.4561 266.929 78.4479 268.13 78.4486L277.666 78.454C278.696 78.4546 279.579 77.7201 279.766 76.7076L280.557 72.4333Z" fill="black"/>
<path d="M280.557 72.4333C281.052 69.7538 278.945 67.3021 276.221 67.3899L268.243 67.6472C267.115 67.6836 266.21 68.5928 266.178 69.7217L265.998 76.255C265.964 77.4561 266.929 78.4479 268.13 78.4486L277.666 78.454C278.696 78.4546 279.579 77.7201 279.766 76.7076L280.557 72.4333Z" fill="url(#paint5_linear_1546_23485)" fill-opacity="0.2"/>
</mask>
<g mask="url(#mask1_1546_23485)">
<path d="M265.293 70.7531L266.523 66.6025L272.188 66.6025L271.348 67.7121C268.956 70.8694 267.793 74.788 268.076 78.7386L266.025 78.4655L265.293 70.7531Z" fill="white"/>
</g>
<rect width="4.26928" height="2.13464" rx="1.06732" transform="matrix(-0.983326 -0.181853 -0.181853 0.983326 285.992 72.3877)" fill="#FB398C"/>
<circle cx="298.879" cy="80.0696" r="4" transform="rotate(-18.6646 298.879 80.0696)" fill="black"/>
<rect x="264.852" y="106.018" width="14" height="7" rx="3.5" transform="rotate(-8.33484 264.852 106.018)" fill="black"/>
<path d="M275.75 108.465L285.102 106.607C286.371 106.355 287.44 105.505 287.971 104.325L298.879 80.0696" stroke="black" stroke-width="3"/>
<path d="M253.6 86.5701C253.073 87.0062 252.67 87.3869 252.431 87.0996C252.193 86.8122 252.426 86.2257 252.953 85.7896C253.479 85.3535 254.098 85.233 254.336 85.5203C254.575 85.8077 254.126 86.134 253.6 86.5701Z" fill="white"/>
<path d="M269.599 86.5701C269.073 87.0062 268.67 87.3869 268.431 87.0996C268.193 86.8122 268.426 86.2257 268.952 85.7896C269.479 85.3535 270.098 85.233 270.336 85.5203C270.575 85.8077 270.126 86.134 269.599 86.5701Z" fill="white"/>
</g>
<defs>
<filter id="filter0_f_1546_23485" x="55.6637" y="71.6145" width="376.044" height="195.635" filterUnits="userSpaceOnUse" color-interpolation-filters="sRGB">
<feFlood flood-opacity="0" result="BackgroundImageFix"/>
<feBlend mode="normal" in="SourceGraphic" in2="BackgroundImageFix" result="shape"/>
<feGaussianBlur stdDeviation="20" result="effect1_foregroundBlur_1546_23485"/>
</filter>
<filter id="filter1_f_1546_23485" x="-140.038" y="-174" width="604.925" height="366.305" filterUnits="userSpaceOnUse" color-interpolation-filters="sRGB">
<feFlood flood-opacity="0" result="BackgroundImageFix"/>
<feBlend mode="normal" in="SourceGraphic" in2="BackgroundImageFix" result="shape"/>
<feGaussianBlur stdDeviation="50" result="effect1_foregroundBlur_1546_23485"/>
</filter>
<filter id="filter2_f_1546_23485" x="-187" y="-88" width="617" height="428.68" filterUnits="userSpaceOnUse" color-interpolation-filters="sRGB">
<feFlood flood-opacity="0" result="BackgroundImageFix"/>
<feBlend mode="normal" in="SourceGraphic" in2="BackgroundImageFix" result="shape"/>
<feGaussianBlur stdDeviation="70" result="effect1_foregroundBlur_1546_23485"/>
</filter>
<filter id="filter3_i_1546_23485" x="193" y="25" width="152" height="142" filterUnits="userSpaceOnUse" color-interpolation-filters="sRGB">
<feFlood flood-opacity="0" result="BackgroundImageFix"/>
<feBlend mode="normal" in="SourceGraphic" in2="BackgroundImageFix" result="shape"/>
<feColorMatrix in="SourceAlpha" type="matrix" values="0 0 0 0 0 0 0 0 0 0 0 0 0 0 0 0 0 0 127 0" result="hardAlpha"/>
<feOffset dy="4"/>
<feGaussianBlur stdDeviation="2"/>
<feComposite in2="hardAlpha" operator="arithmetic" k2="-1" k3="1"/>
<feColorMatrix type="matrix" values="0 0 0 0 1 0 0 0 0 1 0 0 0 0 1 0 0 0 0.25 0"/>
<feBlend mode="normal" in2="shape" result="effect1_innerShadow_1546_23485"/>
</filter>
<filter id="filter4_d_1546_23485" x="186.586" y="117.586" width="53.8276" height="53.8276" filterUnits="userSpaceOnUse" color-interpolation-filters="sRGB">
<feFlood flood-opacity="0" result="BackgroundImageFix"/>
<feColorMatrix in="SourceAlpha" type="matrix" values="0 0 0 0 0 0 0 0 0 0 0 0 0 0 0 0 0 0 127 0" result="hardAlpha"/>
<feOffset/>
<feGaussianBlur stdDeviation="6"/>
<feComposite in2="hardAlpha" operator="out"/>
<feColorMatrix type="matrix" values="0 0 0 0 0.984314 0 0 0 0 0.227451 0 0 0 0 0.584314 0 0 0 0.4 0"/>
<feBlend mode="normal" in2="BackgroundImageFix" result="effect1_dropShadow_1546_23485"/>
<feBlend mode="normal" in="SourceGraphic" in2="effect1_dropShadow_1546_23485" result="shape"/>
</filter>
<linearGradient id="paint0_linear_1546_23485" x1="95.3749" y1="206.744" x2="393.903" y2="149.433" gradientUnits="userSpaceOnUse">
<stop offset="0.0249355" stop-color="#FF9D9F"/>
<stop offset="0.578876" stop-color="#FFBCA4"/>
<stop offset="1" stop-color="#FFF7AE"/>
</linearGradient>
<linearGradient id="paint1_linear_1546_23485" x1="350.373" y1="93.5129" x2="116.022" y2="98.5157" gradientUnits="userSpaceOnUse">
<stop stop-color="#FA3FB9"/>
<stop offset="1" stop-color="#FF2B13"/>
</linearGradient>
<linearGradient id="paint2_linear_1546_23485" x1="245.101" y1="75.3157" x2="256.581" y2="87.0358" gradientUnits="userSpaceOnUse">
<stop offset="0.176652" stop-color="white" stop-opacity="0.664437"/>
<stop offset="0.455256" stop-color="white" stop-opacity="0"/>
<stop offset="0.762768" stop-color="white"/>
</linearGradient>
<linearGradient id="paint3_linear_1546_23485" x1="245.101" y1="75.3157" x2="256.581" y2="87.0358" gradientUnits="userSpaceOnUse">
<stop offset="0.176652" stop-color="white" stop-opacity="0.664437"/>
<stop offset="0.455256" stop-color="white" stop-opacity="0"/>
<stop offset="0.762768" stop-color="white"/>
</linearGradient>
<linearGradient id="paint4_linear_1546_23485" x1="280.657" y1="75.3157" x2="269.177" y2="87.0358" gradientUnits="userSpaceOnUse">
<stop offset="0.176652" stop-color="white" stop-opacity="0.664437"/>
<stop offset="0.455256" stop-color="white" stop-opacity="0"/>
<stop offset="0.762768" stop-color="white"/>
</linearGradient>
<linearGradient id="paint5_linear_1546_23485" x1="280.657" y1="75.3157" x2="269.177" y2="87.0358" gradientUnits="userSpaceOnUse">
<stop offset="0.176652" stop-color="white" stop-opacity="0.664437"/>
<stop offset="0.455256" stop-color="white" stop-opacity="0"/>
<stop offset="0.762768" stop-color="white"/>
</linearGradient>
<clipPath id="clip0_1546_23485">
<rect width="360" height="184" fill="white"/>
</clipPath>
</defs>
</svg>
