<svg width="48" height="48" viewBox="0 0 48 48" fill="none" xmlns="http://www.w3.org/2000/svg">
<g clip-path="url(#clip0_1665_9532)">
<path d="M0 24C0 10.7452 10.7452 0 24 0C37.2548 0 48 10.7452 48 24C48 37.2548 37.2548 48 24 48C10.7452 48 0 37.2548 0 24Z" fill="url(#paint0_linear_1665_9532)"/>
<g filter="url(#filter0_f_1665_9532)">
<ellipse cx="23.75" cy="31" rx="16.75" ry="13" fill="url(#paint1_linear_1665_9532)"/>
</g>
<path d="M26.9999 5.03058C35.8364 5.03058 43.0001 12.1941 43.0002 21.0306C43.0002 28.812 37.4448 35.2945 30.0842 36.732L21.3078 44.4987C20.9917 44.7785 20.4929 44.5652 20.4772 44.1434L20.2104 36.9785C11.977 36.3218 5.50017 29.433 5.50017 21.0306C5.50029 12.1941 12.6637 5.03032 21.5002 5.03032L26.9999 5.03058Z" fill="white"/>
<path d="M16.5968 24.7278C14.9239 23.0316 14.025 20.9304 14 18.6013C14.025 15.2089 16.5219 12.5 19.768 12.5C21.6157 12.5 23.1888 13.3608 24.2375 14.7025C25.3112 13.3608 26.9093 12.5 28.757 12.5C31.9781 12.5 34.5 15.2089 34.5 18.6013C34.5 20.9304 33.6011 23.0316 31.9032 24.7278L24.2375 32.5L16.5968 24.7278Z" fill="url(#paint2_linear_1665_9532)"/>
<mask id="mask0_1665_9532" style="mask-type:alpha" maskUnits="userSpaceOnUse" x="14" y="12" width="21" height="21">
<path d="M16.5968 24.7278C14.9239 23.0316 14.025 20.9304 14 18.6013C14.025 15.2089 16.5219 12.5 19.768 12.5C21.6157 12.5 23.1888 13.3608 24.2375 14.7025C25.3112 13.3608 26.9093 12.5 28.757 12.5C31.9781 12.5 34.5 15.2089 34.5 18.6013C34.5 20.9304 33.6011 23.0316 31.9032 24.7278L24.2375 32.5L16.5968 24.7278Z" fill="url(#paint3_linear_1665_9532)"/>
</mask>
<g mask="url(#mask0_1665_9532)">
<g filter="url(#filter1_f_1665_9532)">
<ellipse cx="24.25" cy="26.5" rx="7.75" ry="6" fill="#FFDC92"/>
</g>
</g>
</g>
<defs>
<filter id="filter0_f_1665_9532" x="-3" y="8" width="53.5" height="46" filterUnits="userSpaceOnUse" color-interpolation-filters="sRGB">
<feFlood flood-opacity="0" result="BackgroundImageFix"/>
<feBlend mode="normal" in="SourceGraphic" in2="BackgroundImageFix" result="shape"/>
<feGaussianBlur stdDeviation="5" result="effect1_foregroundBlur_1665_9532"/>
</filter>
<filter id="filter1_f_1665_9532" x="8.5" y="12.5" width="31.5" height="28" filterUnits="userSpaceOnUse" color-interpolation-filters="sRGB">
<feFlood flood-opacity="0" result="BackgroundImageFix"/>
<feBlend mode="normal" in="SourceGraphic" in2="BackgroundImageFix" result="shape"/>
<feGaussianBlur stdDeviation="4" result="effect1_foregroundBlur_1665_9532"/>
</filter>
<linearGradient id="paint0_linear_1665_9532" x1="24" y1="-5" x2="24.0765" y2="50.9999" gradientUnits="userSpaceOnUse">
<stop stop-color="#FF3BC1"/>
<stop offset="0.458845" stop-color="#FF986E"/>
<stop offset="1" stop-color="#FF6354"/>
</linearGradient>
<linearGradient id="paint1_linear_1665_9532" x1="23.75" y1="18" x2="23.75" y2="44" gradientUnits="userSpaceOnUse">
<stop stop-color="#FFE692"/>
<stop offset="1" stop-color="#FFE692" stop-opacity="0"/>
</linearGradient>
<linearGradient id="paint2_linear_1665_9532" x1="24.8529" y1="4.2647" x2="24.9023" y2="41.3235" gradientUnits="userSpaceOnUse">
<stop stop-color="#FF3BC1"/>
<stop offset="0.458845" stop-color="#FFB698"/>
<stop offset="1" stop-color="#FF6354"/>
</linearGradient>
<linearGradient id="paint3_linear_1665_9532" x1="24.8529" y1="4.2647" x2="24.9023" y2="41.3235" gradientUnits="userSpaceOnUse">
<stop stop-color="#FF3BC1"/>
<stop offset="0.458845" stop-color="#FFB698"/>
<stop offset="1" stop-color="#FF6354"/>
</linearGradient>
<clipPath id="clip0_1665_9532">
<path d="M0 24C0 10.7452 10.7452 0 24 0C37.2548 0 48 10.7452 48 24C48 37.2548 37.2548 48 24 48C10.7452 48 0 37.2548 0 24Z" fill="white"/>
</clipPath>
</defs>
</svg>
