<svg width="48" height="48" viewBox="0 0 48 48" fill="none" xmlns="http://www.w3.org/2000/svg">
<rect width="48" height="48" rx="24" fill="url(#paint0_linear_1665_9513)"/>
<g opacity="0.9">
<path d="M33.2858 35.7714C33.9199 36.5008 33.8426 37.6062 33.1132 38.2403C33.0352 38.3081 32.9518 38.3659 32.8662 38.4175C33.4147 39.145 33.3152 40.1828 32.6172 40.7897C31.8879 41.4237 30.7825 41.3463 30.1484 40.617C30.0506 40.5045 29.9714 40.382 29.9072 40.2548C29.8135 40.4213 29.6922 40.5762 29.5397 40.7088C28.8259 41.3293 27.7438 41.2536 27.1232 40.5398C26.5174 39.8428 26.5764 38.7958 27.244 38.1691C26.6321 37.2995 26.7653 36.0905 27.5852 35.3777C28.4604 34.6172 29.7865 34.7099 30.5473 35.5848C30.5915 35.6357 30.6328 35.6886 30.6713 35.7423C30.7167 35.6925 30.7649 35.6441 30.817 35.5988C31.5463 34.9648 32.6517 35.0423 33.2858 35.7714Z" fill="#EBEBEB"/>
<path d="M33.2858 35.7714C33.9199 36.5008 33.8426 37.6062 33.1132 38.2403C33.0352 38.3081 32.9518 38.3659 32.8662 38.4175C33.4147 39.145 33.3152 40.1828 32.6172 40.7897C31.8879 41.4237 30.7825 41.3463 30.1484 40.617C30.0506 40.5045 29.9714 40.382 29.9072 40.2548C29.8135 40.4213 29.6922 40.5762 29.5397 40.7088C28.8259 41.3293 27.7438 41.2536 27.1232 40.5398C26.5174 39.8428 26.5764 38.7958 27.244 38.1691C26.6321 37.2995 26.7653 36.0905 27.5852 35.3777C28.4604 34.6172 29.7865 34.7099 30.5473 35.5848C30.5915 35.6357 30.6328 35.6886 30.6713 35.7423C30.7167 35.6925 30.7649 35.6441 30.817 35.5988C31.5463 34.9648 32.6517 35.0423 33.2858 35.7714Z" fill="url(#paint1_linear_1665_9513)" fill-opacity="0.2"/>
</g>
<path opacity="0.8" d="M24.6822 44.2593C24.2054 44.4449 23.6753 44.2448 23.4316 43.8113C22.8532 43.9284 22.2578 43.6173 22.0364 43.0486C21.8286 42.5147 22.0178 41.9256 22.4599 41.6032C22.4842 41.2611 22.6993 40.9462 23.0401 40.8136C23.3286 40.7014 23.6389 40.7463 23.8786 40.9053C23.9355 40.8724 23.9947 40.8413 24.0578 40.8167C24.7254 40.557 25.4773 40.8882 25.7372 41.5557C25.9541 42.1135 25.7586 42.7294 25.2991 43.0686C25.4213 43.5571 25.1637 44.0717 24.6822 44.2593Z" fill="#EBEBEB"/>
<path d="M29.3008 5C34.7171 5 39.1599 9.31202 39.6201 14.8076C42.211 16.1374 44 18.9701 44 22.25C44 26.462 41.0494 29.9334 37.2393 30.4346C36.1936 34.1401 32.896 36.8477 28.9863 36.8477C26.9856 36.8476 25.1466 36.136 23.6855 34.9473C22.2245 36.136 20.3855 36.8475 18.3848 36.8477C13.9223 36.8477 10.2524 33.3217 9.82422 28.8086C6.49077 28.0307 4 24.9434 4 21.25C4 17.5728 6.46884 14.4958 9.78027 13.7012C9.89416 8.87565 13.6975 5.00009 18.376 5C20.3222 5 22.1173 5.67106 23.5586 6.80176C25.2023 5.66404 27.1766 5.00009 29.3008 5Z" fill="white"/>
<path d="M24 10.5L27.3411 17.6589L34.5 21L27.3411 24.3411L24 31.5L20.6589 24.3411L13.5 21L20.6589 17.6589L24 10.5Z" fill="url(#paint2_linear_1665_9513)"/>
<defs>
<linearGradient id="paint0_linear_1665_9513" x1="24" y1="-3.5" x2="24.0755" y2="51.7499" gradientUnits="userSpaceOnUse">
<stop stop-color="#FF54AF"/>
<stop offset="0.466346" stop-color="#AE36D7"/>
<stop offset="1" stop-color="#3B48FF"/>
</linearGradient>
<linearGradient id="paint1_linear_1665_9513" x1="32.0213" y1="40.0434" x2="30.3618" y2="34.0549" gradientUnits="userSpaceOnUse">
<stop stop-color="white" stop-opacity="0"/>
<stop offset="1"/>
</linearGradient>
<linearGradient id="paint2_linear_1665_9513" x1="23.9524" y1="10.5" x2="24.0287" y2="31.4999" gradientUnits="userSpaceOnUse">
<stop stop-color="#FF54AF"/>
<stop offset="0.466346" stop-color="#AE36D7"/>
<stop offset="1" stop-color="#3B48FF"/>
</linearGradient>
</defs>
</svg>
